# xmcd
#
# Track frame offsets:
#	150
#	12284
#	27051
#	41130
#	60459
#	76852
#	94250
#	109240
#	128853
#	146820
#	164127
#	178666
#	193476
#	224786
#	241655
#
# Disc length: 3467 seconds
#
# Revision: 1
# Processed by: cddbd v1.5.2PL0 Copyright (c) Steve Scherf et al.
# Submitted via: audiograbber 1.80.04
#
DISCID=dd0d890f
DTITLE=Aire - Origen
DYEAR=2005
DGENRE=
TTITLE0=GALAXI 500
TTITLE1=LA RAIZ
TTITLE2=AIRE
TTITLE3=LUCIERNAGA
TTITLE4=CICATRISA
TTITLE5=ADIVINAR
TTITLE6=VIAJERO ESPACIAL
TTITLE7=TIEMBLA
TTITLE8=LA MONTAÑA
TTITLE9=BRISA MARINA
TTITLE10=EGOS
TTITLE11=EL MUNDO
TTITLE12=ORIGEN
TTITLE13=UTERO
TTITLE14=INSTINTO
EXTD=Felicidades 
EXTT0=
EXTT1=
EXTT2=
EXTT3=
EXTT4=
EXTT5=
EXTT6=
EXTT7=
EXTT8=
EXTT9=
EXTT10=
EXTT11=
EXTT12=
EXTT13=
EXTT14=
PLAYORDER=
